# xmcd
#
# Track frame offsets:
#	150
#	16100
#	37227
#	57185
#	79352
#	99365
#	112695
#	126950
#	138227
#	159302
#	186130
#	202032
#	212832
#	224760
#	241135
#
# Disc length: 3463
#
# Revision: 1
# Processed by: cddbd v1.5.1PL0 Copyright (c) Steve Scherf et al.
# Submitted via: CDex 1.51
# Normalized: r0:TRMNUM
#
DISCID=d20d850f
DTITLE=IAN COOPER - Strings of Swing
DYEAR=1994
DGENRE=Jazz
TTITLE0=Mr Bogs (Ian Date)
TTITLE1=Night and Day (Cole Porter)
TTITLE2=The Nearness Of You (Cormichael and Washington)
TTITLE3=Shine (Dabney and Mack and Brown)
TTITLE4=Roselight (Hill and Cooper and Date)
TTITLE5=Avalon (Jolson and Rose)
TTITLE6=Sone Of India (N Rimsky Korsakow and Dorsey Arr)
TTITLE7=Graveyard and Blues (Ian Date)
TTITLE8=Shiraz (Ian Cooper)
TTITLE9=Dinah (H Akst)
TTITLE10=Shipwreck (Cooper and date)
TTITLE11=Dark Wind (Cooper and Date)
TTITLE12=Confessin' (Daugherty and Reynold)
TTITLE13=Honeysuckle Rose (Fats Waller)
TTITLE14=Mike (Django Reinhardt)
EXTD=YEAR: 1994
EXTT0=
EXTT1=
EXTT2=
EXTT3=
EXTT4=
EXTT5=
EXTT6=
EXTT7=
EXTT8=
EXTT9=
EXTT10=
EXTT11=
EXTT12=
EXTT13=
EXTT14=
PLAYORDER=
